<svg xmlns="http://www.w3.org/2000/svg" xmlns:xlink="http://www.w3.org/1999/xlink" width="1920" zoomAndPan="magnify" viewBox="0 0 1440 293.999989" height="392" preserveAspectRatio="xMidYMid meet" version="1.0"><defs><g/><clipPath id="85f40cbfcf"><path d="M 30 42 L 329 42 L 329 263.617188 L 30 263.617188 Z M 30 42 " clip-rule="nonzero"/></clipPath></defs><g clip-path="url(#85f40cbfcf)"><path fill="#d1feff" d="M 287.964844 84.933594 C 274.300781 88.234375 260.101562 89.914062 246.257812 92.492188 C 232.355469 95.070312 218.574219 98.070312 204.792969 101.367188 C 203.113281 101.789062 202.394531 99.269531 204.074219 98.851562 C 218.035156 95.25 231.996094 91.953125 246.140625 89.011719 C 259.679688 86.253906 273.703125 83.195312 287.546875 81.996094 C 289.222656 81.816406 289.582031 84.515625 287.964844 84.933594 Z M 125.574219 180.835938 C 107.238281 177.957031 88.902344 174.898438 70.445312 172.738281 C 69.488281 172.621094 69.25 174.300781 70.207031 174.480469 C 88.542969 178.316406 107.121094 181.195312 125.636719 184.253906 C 144.152344 187.3125 162.667969 190.554688 181.242188 193.25 C 183.339844 193.550781 184.300781 190.375 182.082031 189.953125 C 163.328125 186.59375 144.390625 183.777344 125.574219 180.835938 Z M 86.746094 231.457031 C 73.023438 227.199219 59.359375 222.878906 45.699219 218.5 C 43.902344 217.902344 43.183594 220.78125 44.980469 221.320312 C 58.460938 225.640625 71.945312 229.898438 85.425781 234.09375 C 91.898438 236.074219 98.371094 238.054688 104.902344 239.972656 C 112.8125 242.253906 120.902344 245.429688 128.992188 246.691406 C 129.949219 246.871094 130.730469 245.492188 129.648438 245.011719 C 122.519531 241.832031 114.488281 240.09375 107 237.753906 C 100.289062 235.65625 93.515625 233.554688 86.746094 231.457031 Z M 45.757812 206.746094 C 44.140625 206.265625 43.480469 208.785156 45.101562 209.324219 C 72.542969 217.960938 100.046875 226.359375 127.554688 234.695312 C 128.8125 235.054688 129.289062 233.136719 128.09375 232.714844 C 100.648438 223.898438 73.261719 215.203125 45.757812 206.746094 Z M 180.765625 176.757812 C 142.472656 170.222656 104.125 164.042969 65.832031 157.566406 C 64.394531 157.328125 64.453125 159.125 65.894531 159.425781 C 65.894531 159.425781 141.933594 173.160156 180.042969 180.175781 C 183.039062 180.71875 183.761719 177.296875 180.765625 176.757812 Z M 287.84375 68.921875 C 258.902344 73.300781 230.140625 78.636719 201.4375 84.335938 C 200.238281 84.574219 200.777344 86.375 201.976562 86.132812 C 230.800781 80.976562 259.679688 76.179688 288.625 71.558594 C 290.363281 71.320312 289.582031 68.683594 287.84375 68.921875 Z M 322.601562 145.570312 C 322.421875 145.871094 322.179688 145.992188 321.878906 146.050781 C 321.582031 146.230469 321.28125 146.351562 320.921875 146.351562 C 317.6875 146.769531 314.449219 147.191406 311.273438 147.609375 C 316.308594 158.285156 318.046875 173.398438 310.316406 183.117188 C 310.195312 183.234375 310.074219 183.355469 309.957031 183.476562 C 309.714844 183.714844 309.355469 183.894531 308.9375 183.957031 C 305.402344 184.734375 301.867188 185.515625 298.390625 186.292969 C 304.382812 197.269531 303.964844 210.285156 298.269531 221.320312 C 298.089844 221.742188 297.730469 221.921875 297.433594 222.039062 C 297.191406 222.160156 296.953125 222.28125 296.652344 222.339844 C 241.945312 235.894531 187.476562 250.46875 132.527344 263.125 C 131.925781 263.425781 131.207031 263.484375 130.429688 263.242188 C 97.410156 253.769531 64.992188 242.433594 32.214844 232.417969 C 30.179688 231.816406 30.417969 229.117188 31.917969 228.457031 C 39.945312 217.542969 39.585938 202.726562 30.660156 192.351562 C 29.398438 190.851562 30.179688 188.992188 31.4375 188.214844 C 31.617188 188.035156 31.855469 187.914062 32.097656 187.855469 C 40.1875 185.875 48.097656 183.117188 56.183594 181.257812 C 58.703125 180.71875 59.78125 184.375 57.265625 185.09375 C 50.972656 186.953125 44.558594 188.273438 38.148438 189.652344 C 53.1875 194.089844 68.230469 198.46875 83.210938 203.027344 C 91.539062 205.546875 99.808594 208.007812 108.136719 210.523438 C 112.210938 211.785156 116.347656 213.042969 120.421875 214.304688 C 123.296875 215.203125 126.355469 215.804688 129.109375 217.0625 C 143.613281 214.125 158.113281 211.125 172.675781 208.484375 C 157.875 205.308594 143.011719 202.1875 128.210938 199.128906 C 117.066406 196.789062 105.921875 194.390625 94.773438 191.8125 C 83.75 189.234375 72.964844 185.695312 61.996094 183.296875 C 61.9375 183.296875 61.878906 183.234375 61.816406 183.234375 C 61.039062 183.117188 60.320312 182.515625 59.960938 181.496094 C 58.703125 177.476562 58.820312 172.921875 58.523438 168.722656 L 57.503906 154.746094 C 57.324219 152.648438 60.917969 152.109375 61.21875 154.207031 C 61.9375 158.824219 62.65625 163.445312 63.375 168.003906 C 64.035156 172.140625 65.234375 176.578125 64.933594 180.777344 C 64.933594 180.898438 64.875 181.015625 64.875 181.136719 C 75.480469 183.355469 86.445312 184.554688 97.113281 186.535156 C 108.019531 188.574219 118.984375 190.613281 129.890625 192.652344 C 152.242188 196.910156 174.652344 200.6875 197.0625 204.46875 C 197.242188 204.527344 197.480469 204.527344 197.660156 204.585938 C 202.515625 194.871094 202.214844 183.535156 197.242188 173.878906 C 196.882812 173.460938 196.523438 173.039062 196.164062 172.679688 C 196.105469 172.621094 196.105469 172.621094 196.042969 172.558594 C 191.128906 172.261719 186.097656 171.179688 181.242188 170.519531 C 177.769531 170.042969 174.230469 169.5 170.757812 168.960938 C 170.695312 168.960938 170.636719 168.960938 170.515625 168.960938 C 125.875 161.585938 81.292969 153.90625 36.589844 146.652344 C 34.015625 146.230469 35.09375 142.453125 37.609375 142.8125 C 38.089844 142.871094 38.566406 142.933594 39.046875 142.992188 C 38.449219 132.796875 38.089844 122.660156 37.730469 112.464844 C 36.832031 112.34375 35.992188 112.164062 35.09375 112.042969 C 34.734375 111.984375 34.433594 111.863281 34.253906 111.625 C 32.996094 110.90625 32.753906 108.566406 34.613281 108.027344 C 43.960938 105.265625 53.367188 102.386719 62.957031 100.648438 C 59.480469 95.910156 57.921875 89.253906 57.625 83.796875 C 57.144531 76.417969 59 69.222656 62.71875 62.925781 C 62.777344 62.382812 63.136719 61.90625 63.855469 61.722656 C 79.734375 57.945312 95.734375 53.449219 111.851562 50.6875 C 121.742188 48.351562 133.605469 46.128906 140.078125 44.691406 C 146.90625 43.191406 152.960938 42.292969 159.96875 42.113281 C 175.070312 41.753906 190.410156 43.3125 205.453125 43.972656 C 237.511719 45.472656 267.351562 47.511719 301.746094 51.46875 C 303.125 51.648438 303.542969 52.90625 303.304688 53.925781 C 303.425781 55.066406 302.765625 56.207031 301.386719 56.148438 C 300.546875 56.265625 299.710938 56.445312 298.871094 56.566406 C 297.492188 63.105469 296.773438 69.703125 297.132812 76.359375 C 297.433594 82.296875 298.8125 87.933594 300.128906 93.691406 C 301.085938 93.570312 302.046875 93.390625 303.003906 93.210938 C 305.460938 92.851562 306.660156 96.570312 304.082031 97.050781 C 295.15625 98.667969 286.167969 100.347656 277.238281 102.089844 C 292.21875 102.867188 306.898438 104.488281 321.699219 107.484375 C 322.058594 107.546875 322.300781 107.667969 322.539062 107.847656 C 323.378906 108.144531 323.859375 108.984375 323.917969 109.824219 C 330.148438 121.101562 329.550781 134.65625 322.601562 145.570312 Z M 295.753906 57.105469 C 260.878906 62.804688 226.003906 68.5 191.191406 74.679688 C 191.191406 74.738281 191.128906 74.859375 191.128906 74.917969 C 188.074219 81.875 187.054688 89.492188 188.074219 97.050781 C 188.554688 100.410156 189.453125 103.648438 190.589844 106.828125 C 191.488281 109.226562 192.808594 111.382812 193.886719 113.722656 C 228.34375 106.648438 262.675781 99.628906 297.433594 94.171875 C 292.9375 82.476562 293.296875 69.222656 295.753906 57.105469 Z M 74.460938 62.925781 C 112.152344 65.742188 149.84375 68.5 187.535156 71.921875 C 187.65625 71.859375 187.773438 71.800781 187.953125 71.800781 C 220.253906 64.902344 252.910156 59.566406 285.566406 54.46875 C 286.40625 54.347656 287.1875 54.289062 288.023438 54.167969 C 261.417969 51.589844 234.8125 49.609375 208.089844 48.289062 C 192.75 47.511719 177.40625 46.429688 162.007812 45.710938 C 159.730469 45.589844 157.515625 45.589844 155.355469 45.710938 C 145.828125 47.691406 136.300781 49.730469 126.773438 51.648438 C 119.941406 53.386719 112.453125 55.246094 107.480469 56.265625 C 96.453125 58.726562 85.425781 60.703125 74.460938 62.925781 Z M 187.414062 76.296875 C 171.773438 74.917969 156.136719 73.539062 140.496094 72.101562 C 138.21875 84.875 138.878906 97.109375 143.550781 109.226562 C 158.113281 110.726562 172.675781 112.105469 187.296875 113.242188 C 184.660156 108.207031 183.699219 101.726562 183.460938 96.628906 C 183.160156 89.613281 184.539062 82.65625 187.414062 76.296875 Z M 136.0625 71.742188 C 125.277344 70.78125 114.488281 69.761719 103.703125 68.742188 C 100.527344 80.976562 101.605469 93.8125 107.058594 105.265625 C 117.90625 106.527344 128.75 107.785156 139.597656 108.925781 C 134.5625 97.351562 132.886719 83.976562 136.0625 71.742188 Z M 67.628906 100.410156 C 79.015625 101.847656 90.402344 103.226562 101.847656 104.605469 C 96.753906 93.03125 95.675781 80.617188 98.910156 68.261719 C 87.523438 67.183594 76.140625 66.042969 64.753906 64.902344 C 64.515625 64.964844 64.214844 64.964844 64.035156 64.902344 C 61.339844 70.601562 60.199219 76.71875 60.859375 83.015625 C 61.578125 89.792969 64.8125 94.652344 67.628906 100.410156 Z M 171.535156 132.257812 C 128.03125 125.957031 84.410156 120.019531 41.023438 112.945312 C 41.445312 123.078125 41.921875 133.214844 42.105469 143.351562 C 84.949219 149.347656 127.671875 155.585938 170.398438 162.363281 C 170.457031 162.125 170.515625 161.945312 170.636719 161.703125 C 174.953125 152.410156 175.429688 141.851562 171.535156 132.257812 Z M 174.53125 126.917969 C 218.574219 119.660156 262.855469 114.324219 307.199219 109.34375 C 293.835938 107.1875 280.414062 105.027344 266.871094 104.1875 C 266.8125 104.1875 266.8125 104.1875 266.753906 104.1875 C 242.421875 108.984375 218.15625 114.023438 193.945312 119.0625 C 193.828125 119.0625 193.707031 119.0625 193.585938 119.121094 C 193.289062 119.242188 192.867188 119.300781 192.449219 119.242188 C 150.441406 115.761719 108.738281 110.003906 67.03125 104.007812 C 66.792969 104.066406 66.550781 104.007812 66.253906 103.949219 C 66.132812 104.007812 66.074219 104.007812 65.953125 104.066406 C 58.582031 105.988281 51.210938 107.726562 43.839844 109.585938 C 87.046875 114.863281 130.1875 120.320312 173.273438 126.4375 C 173.8125 126.5 174.171875 126.679688 174.53125 126.917969 Z M 271.84375 148.03125 C 277.957031 147.191406 284.011719 146.410156 290.121094 145.632812 C 292.636719 135.855469 292.160156 125.71875 287.726562 116.722656 C 281.613281 117.441406 275.5 118.160156 269.390625 118.882812 C 273.644531 127.816406 275.261719 138.613281 271.84375 148.03125 Z M 241.105469 152.347656 C 249.914062 151.089844 258.722656 149.828125 267.53125 148.628906 C 269.75 138.734375 270.40625 129.257812 266.214844 119.660156 C 266.152344 119.542969 266.09375 119.363281 266.09375 119.242188 C 257.34375 120.261719 248.597656 121.339844 239.847656 122.421875 C 243.742188 131.777344 244.820312 142.8125 241.105469 152.347656 Z M 215.039062 156.308594 C 222.351562 155.167969 229.71875 154.027344 237.089844 152.949219 C 240.085938 142.632812 240.867188 132.855469 236.792969 122.78125 C 229.0625 123.679688 221.332031 124.640625 213.660156 125.539062 C 218.335938 135.195312 219.054688 146.351562 215.039062 156.308594 Z M 211.503906 156.90625 C 214.019531 146.589844 214.738281 136.035156 210.246094 126.019531 C 210.246094 126.019531 210.246094 126.019531 210.246094 125.957031 C 198.679688 127.339844 187.054688 128.65625 175.429688 129.917969 C 180.164062 140.53125 180.402344 152.347656 175.671875 163.023438 C 187.59375 160.863281 199.519531 158.824219 211.503906 156.90625 Z M 235.953125 158.164062 C 219.472656 160.566406 202.996094 162.964844 186.457031 165.304688 C 189.992188 165.601562 193.585938 165.84375 196.941406 166.5625 C 209.945312 163.683594 222.949219 160.863281 235.953125 158.164062 Z M 128.210938 223.121094 C 127.972656 222.878906 127.792969 222.640625 127.671875 222.339844 C 124.675781 221.800781 121.859375 220.601562 118.984375 219.703125 C 114.910156 218.382812 110.773438 217.121094 106.699219 215.863281 C 98.429688 213.285156 90.160156 210.703125 81.832031 208.125 C 67.152344 203.566406 52.53125 198.890625 37.96875 194.089844 C 44.261719 205.1875 43.542969 218.621094 35.632812 228.996094 C 67.628906 237.753906 99.269531 247.589844 131.148438 256.765625 C 136.121094 245.671875 137.621094 232.417969 128.210938 223.121094 Z M 191.371094 228.636719 C 190.652344 222.398438 188.671875 216.644531 185.496094 211.363281 C 168.480469 215.503906 151.164062 218.382812 134.023438 221.742188 C 142.894531 231.816406 141.15625 246.332031 136.179688 258.144531 C 154.277344 253.289062 172.375 248.488281 190.472656 243.75 C 190.53125 241.890625 191.128906 240.035156 191.371094 238.054688 C 191.730469 234.933594 191.667969 231.757812 191.371094 228.636719 Z M 250.152344 198.171875 C 244.582031 199.667969 239.007812 201.167969 233.433594 202.726562 C 227.863281 204.289062 222.289062 205.847656 216.71875 207.40625 C 211.265625 208.964844 205.75 210.523438 200.296875 212.203125 C 198.441406 212.746094 196.164062 213.164062 194.304688 212.746094 C 192.808594 212.382812 191.789062 212.144531 189.871094 211.664062 C 192.6875 216.402344 194.90625 222.160156 195.746094 227.617188 C 196.34375 231.457031 196.941406 237.753906 195.625 242.433594 C 215.277344 237.273438 234.933594 232.175781 254.589844 227.136719 C 256.207031 217.0625 255.128906 207.226562 250.152344 198.171875 Z M 297.074219 203.089844 C 296.953125 198.230469 295.273438 191.273438 291.261719 187.972656 C 278.675781 190.914062 266.09375 193.972656 253.570312 197.269531 C 258.484375 205.96875 260.640625 216.28125 258.78125 226.058594 C 270.585938 223.058594 282.390625 220.0625 294.257812 217.121094 C 296.292969 212.625 297.191406 207.945312 297.074219 203.089844 Z M 309.835938 165.542969 C 309.835938 159.84375 308.519531 154.265625 305.941406 149.167969 C 305.820312 148.988281 305.761719 148.75 305.703125 148.570312 C 288.5625 152.347656 271.066406 154.988281 253.808594 158.464844 C 236.070312 162.0625 218.394531 165.84375 200.71875 169.742188 C 200.71875 169.859375 200.71875 169.921875 200.71875 170.042969 C 205.992188 178.4375 207.429688 188.453125 205.152344 197.808594 C 204.734375 200.988281 203.894531 204.046875 202.753906 207.105469 C 237.390625 196.851562 272.324219 187.914062 307.4375 179.457031 C 308.519531 174.839844 309.835938 170.402344 309.835938 165.542969 Z M 319.664062 113.003906 C 310.253906 114.023438 300.789062 115.101562 291.378906 116.242188 C 295.933594 125.777344 296.355469 135.136719 293.957031 145.089844 C 302.886719 143.953125 311.875 142.8125 320.800781 141.734375 C 320.800781 141.734375 320.863281 141.734375 320.863281 141.734375 C 324.578125 133.035156 325.117188 121.101562 319.664062 113.003906 Z M 319.664062 113.003906 " fill-opacity="1" fill-rule="nonzero"/></g><g fill="#dafffb" fill-opacity="1"><g transform="translate(371.251998, 200.135783)"><g><path d="M 134.3125 0 L 104.859375 0 L 44.453125 -80.84375 L 44.453125 0 L 13.125 0 L 13.125 -131.3125 L 42.578125 -131.3125 L 103.171875 -50.265625 L 103.171875 -131.3125 L 134.3125 -131.3125 Z M 134.3125 0 "/></g></g></g><g fill="#dafffb" fill-opacity="1"><g transform="translate(518.693495, 200.135783)"><g><path d="M 57.21875 -102.234375 C 74.71875 -102.234375 87.875 -96.851562 96.6875 -86.09375 C 105.507812 -75.34375 109.359375 -60.585938 108.234375 -41.828125 L 37.140625 -41.828125 C 38.765625 -35.828125 41.640625 -31.203125 45.765625 -27.953125 C 49.890625 -24.703125 54.957031 -23.078125 60.96875 -23.078125 C 70.21875 -23.078125 78.28125 -26.515625 85.15625 -33.390625 L 102.234375 -16.6875 C 91.347656 -4.8125 76.65625 1.125 58.15625 1.125 C 41.769531 1.125 28.726562 -3.5625 19.03125 -12.9375 C 9.34375 -22.320312 4.5 -34.765625 4.5 -50.265625 C 4.5 -65.898438 9.34375 -78.46875 19.03125 -87.96875 C 28.726562 -97.476562 41.457031 -102.234375 57.21875 -102.234375 Z M 36.578125 -59.28125 L 77.09375 -59.28125 C 77.09375 -65.40625 75.3125 -70.34375 71.75 -74.09375 C 68.1875 -77.84375 63.46875 -79.71875 57.59375 -79.71875 C 52.082031 -79.71875 47.453125 -77.875 43.703125 -74.1875 C 39.953125 -70.5 37.578125 -65.53125 36.578125 -59.28125 Z M 36.578125 -59.28125 "/></g></g></g><g fill="#dafffb" fill-opacity="1"><g transform="translate(631.61944, 200.135783)"><g><path d="M 57.03125 -72.03125 L 75.03125 -101.109375 L 110.484375 -101.109375 L 78.40625 -51.953125 L 112.734375 0 L 75.40625 0 L 57.03125 -31.703125 L 36.390625 0 L 0.75 0 L 35.265625 -51.765625 L 3 -101.109375 L 40.140625 -101.109375 Z M 57.03125 -72.03125 "/></g></g></g><g fill="#dafffb" fill-opacity="1"><g transform="translate(745.295708, 200.135783)"><g><path d="M 71.84375 -27.953125 L 78.21875 -5.4375 C 70.34375 -0.8125 61.335938 1.5 51.203125 1.5 C 41.203125 1.5 33.101562 -1.28125 26.90625 -6.84375 C 20.71875 -12.40625 17.625 -20.316406 17.625 -30.578125 L 17.625 -75.21875 L 3.5625 -75.21875 L 3.5625 -96.421875 L 17.625 -96.421875 L 17.625 -124.546875 L 49.890625 -124.546875 L 49.890625 -96.609375 L 76.34375 -96.609375 L 76.34375 -75.21875 L 49.890625 -75.21875 L 49.890625 -35.640625 C 49.890625 -31.765625 50.671875 -28.921875 52.234375 -27.109375 C 53.796875 -25.296875 56.144531 -24.453125 59.28125 -24.578125 C 62.28125 -24.578125 66.46875 -25.703125 71.84375 -27.953125 Z M 71.84375 -27.953125 "/></g></g></g><g fill="#dafffb" fill-opacity="1"><g transform="translate(826.89502, 200.135783)"><g/></g></g><g fill="#dafffb" fill-opacity="1"><g transform="translate(870.41467, 200.135783)"><g><path d="M 92.28125 0 L 72.78125 -36.953125 L 46.515625 -36.953125 L 46.515625 0 L 13.125 0 L 13.125 -131.3125 L 71.84375 -131.3125 C 89.226562 -131.3125 102.671875 -127.335938 112.171875 -119.390625 C 121.671875 -111.453125 126.421875 -100.164062 126.421875 -85.53125 C 126.421875 -65.269531 118.484375 -51.203125 102.609375 -43.328125 L 130.171875 0 Z M 46.515625 -63.21875 L 71.84375 -63.21875 C 79.09375 -63.21875 84.71875 -65.03125 88.71875 -68.65625 C 92.726562 -72.28125 94.734375 -77.53125 94.734375 -84.40625 C 94.734375 -91.164062 92.726562 -96.296875 88.71875 -99.796875 C 84.71875 -103.296875 79.09375 -105.046875 71.84375 -105.046875 L 46.515625 -105.046875 Z M 46.515625 -63.21875 "/></g></g></g><g fill="#dafffb" fill-opacity="1"><g transform="translate(1006.225909, 200.135783)"><g><path d="M 57.21875 -102.234375 C 74.71875 -102.234375 87.875 -96.851562 96.6875 -86.09375 C 105.507812 -75.34375 109.359375 -60.585938 108.234375 -41.828125 L 37.140625 -41.828125 C 38.765625 -35.828125 41.640625 -31.203125 45.765625 -27.953125 C 49.890625 -24.703125 54.957031 -23.078125 60.96875 -23.078125 C 70.21875 -23.078125 78.28125 -26.515625 85.15625 -33.390625 L 102.234375 -16.6875 C 91.347656 -4.8125 76.65625 1.125 58.15625 1.125 C 41.769531 1.125 28.726562 -3.5625 19.03125 -12.9375 C 9.34375 -22.320312 4.5 -34.765625 4.5 -50.265625 C 4.5 -65.898438 9.34375 -78.46875 19.03125 -87.96875 C 28.726562 -97.476562 41.457031 -102.234375 57.21875 -102.234375 Z M 36.578125 -59.28125 L 77.09375 -59.28125 C 77.09375 -65.40625 75.3125 -70.34375 71.75 -74.09375 C 68.1875 -77.84375 63.46875 -79.71875 57.59375 -79.71875 C 52.082031 -79.71875 47.453125 -77.875 43.703125 -74.1875 C 39.953125 -70.5 37.578125 -65.53125 36.578125 -59.28125 Z M 36.578125 -59.28125 "/></g></g></g><g fill="#dafffb" fill-opacity="1"><g transform="translate(1119.151843, 200.135783)"><g><path d="M 58.34375 -102.609375 C 72.21875 -102.609375 83 -99.382812 90.6875 -92.9375 C 98.382812 -86.5 102.296875 -77.53125 102.421875 -66.03125 L 102.421875 0 L 70.71875 0 L 70.71875 -11.625 C 64.09375 -2.875 53.773438 1.5 39.765625 1.5 C 29.140625 1.5 20.695312 -1.4375 14.4375 -7.3125 C 8.1875 -13.1875 5.0625 -20.816406 5.0625 -30.203125 C 5.0625 -39.828125 8.40625 -47.296875 15.09375 -52.609375 C 21.789062 -57.929688 31.390625 -60.65625 43.890625 -60.78125 L 70.53125 -60.78125 L 70.53125 -62.28125 C 70.53125 -67.28125 68.875 -71.1875 65.5625 -74 C 62.25 -76.8125 57.335938 -78.21875 50.828125 -78.21875 C 41.703125 -78.21875 31.640625 -75.40625 20.640625 -69.78125 L 11.4375 -91.15625 C 27.820312 -98.789062 43.457031 -102.609375 58.34375 -102.609375 Z M 49.703125 -20.453125 C 54.835938 -20.453125 59.34375 -21.734375 63.21875 -24.296875 C 67.09375 -26.859375 69.53125 -30.203125 70.53125 -34.328125 L 70.53125 -43.328125 L 50.078125 -43.328125 C 40.328125 -43.328125 35.453125 -39.703125 35.453125 -32.453125 C 35.453125 -28.703125 36.703125 -25.765625 39.203125 -23.640625 C 41.703125 -21.515625 45.203125 -20.453125 49.703125 -20.453125 Z M 49.703125 -20.453125 "/></g></g></g><g fill="#dafffb" fill-opacity="1"><g transform="translate(1231.702633, 200.135783)"><g><path d="M 114.796875 -139.1875 L 114.796875 0 L 82.34375 0 L 82.34375 -13.3125 C 74.96875 -3.5625 64.835938 1.3125 51.953125 1.3125 C 37.703125 1.3125 26.257812 -3.5 17.625 -13.125 C 9 -22.757812 4.6875 -35.390625 4.6875 -51.015625 C 4.6875 -66.523438 8.9375 -78.96875 17.4375 -88.34375 C 25.945312 -97.726562 37.203125 -102.421875 51.203125 -102.421875 C 64.585938 -102.421875 74.96875 -97.539062 82.34375 -87.78125 L 82.34375 -139.1875 Z M 43.515625 -31.140625 C 47.640625 -26.265625 53.078125 -23.828125 59.828125 -23.828125 C 66.585938 -23.828125 72.03125 -26.265625 76.15625 -31.140625 C 80.28125 -36.015625 82.34375 -42.390625 82.34375 -50.265625 C 82.34375 -58.023438 80.28125 -64.34375 76.15625 -69.21875 C 72.03125 -74.09375 66.585938 -76.53125 59.828125 -76.53125 C 53.078125 -76.53125 47.640625 -74.125 43.515625 -69.3125 C 39.390625 -64.5 37.265625 -58.148438 37.140625 -50.265625 C 37.265625 -42.390625 39.390625 -36.015625 43.515625 -31.140625 Z M 43.515625 -31.140625 "/></g></g></g><g fill="#dafffb" fill-opacity="1"><g transform="translate(1016.579833, 256.599925)"><g><path d="M 15.15625 -9.3125 L 15.15625 0 L 10.484375 0 L 10.484375 -9.15625 L 0.046875 -28 L 4.796875 -28 L 12.796875 -14.359375 L 20.640625 -28 L 25.4375 -28 Z M 15.15625 -9.3125 "/></g></g></g><g fill="#dafffb" fill-opacity="1"><g transform="translate(1042.057297, 256.599925)"><g><path d="M 12.515625 -21.4375 C 15.796875 -21.4375 18.460938 -20.441406 20.515625 -18.453125 C 22.566406 -16.472656 23.59375 -13.867188 23.59375 -10.640625 C 23.59375 -7.441406 22.566406 -4.84375 20.515625 -2.84375 C 18.460938 -0.84375 15.796875 0.15625 12.515625 0.15625 C 9.210938 0.15625 6.535156 -0.84375 4.484375 -2.84375 C 2.429688 -4.84375 1.40625 -7.441406 1.40625 -10.640625 C 1.40625 -13.867188 2.429688 -16.472656 4.484375 -18.453125 C 6.535156 -20.441406 9.210938 -21.4375 12.515625 -21.4375 Z M 12.515625 -17.484375 C 10.597656 -17.484375 9.03125 -16.84375 7.8125 -15.5625 C 6.601562 -14.28125 6 -12.625 6 -10.59375 C 6 -8.539062 6.601562 -6.875 7.8125 -5.59375 C 9.03125 -4.320312 10.597656 -3.6875 12.515625 -3.6875 C 14.441406 -3.6875 16.003906 -4.320312 17.203125 -5.59375 C 18.398438 -6.875 19 -8.539062 19 -10.59375 C 19 -12.625 18.390625 -14.28125 17.171875 -15.5625 C 15.960938 -16.84375 14.410156 -17.484375 12.515625 -17.484375 Z M 12.515625 -17.484375 "/></g></g></g><g fill="#dafffb" fill-opacity="1"><g transform="translate(1067.054808, 256.599925)"><g><path d="M 22.71875 -21.28125 L 22.71875 0 L 18.125 0 L 18.125 -4.15625 C 16.738281 -1.332031 14.203125 0.101562 10.515625 0.15625 C 8.085938 0.15625 6.179688 -0.570312 4.796875 -2.03125 C 3.410156 -3.5 2.71875 -5.503906 2.71875 -8.046875 L 2.71875 -21.28125 L 7.3125 -21.28125 L 7.3125 -9.3125 C 7.3125 -7.71875 7.75 -6.457031 8.625 -5.53125 C 9.507812 -4.613281 10.726562 -4.15625 12.28125 -4.15625 C 14.0625 -4.1875 15.476562 -4.820312 16.53125 -6.0625 C 17.59375 -7.300781 18.125 -8.878906 18.125 -10.796875 L 18.125 -21.28125 Z M 22.71875 -21.28125 "/></g></g></g><g fill="#dafffb" fill-opacity="1"><g transform="translate(1093.172215, 256.599925)"><g><path d="M 8 -21.28125 L 8 -17.046875 C 9.46875 -19.972656 11.921875 -21.4375 15.359375 -21.4375 L 15.359375 -17.046875 C 13.253906 -17.148438 11.546875 -16.65625 10.234375 -15.5625 C 8.929688 -14.46875 8.1875 -12.988281 8 -11.125 L 8 0 L 3.40625 0 L 3.40625 -21.28125 Z M 8 -21.28125 "/></g></g></g><g fill="#dafffb" fill-opacity="1"><g transform="translate(1108.930648, 256.599925)"><g/></g></g><g fill="#dafffb" fill-opacity="1"><g transform="translate(1119.249624, 256.599925)"><g><path d="M 8.40625 -4.28125 L 20.515625 -4.28125 L 20.515625 0 L 3.6875 0 L 3.6875 -28 L 8.40625 -28 Z M 8.40625 -4.28125 "/></g></g></g><g fill="#dafffb" fill-opacity="1"><g transform="translate(1140.607502, 256.599925)"><g><path d="M 3.75 -29.375 C 4.257812 -29.894531 4.898438 -30.15625 5.671875 -30.15625 C 6.453125 -30.15625 7.09375 -29.894531 7.59375 -29.375 C 8.101562 -28.851562 8.359375 -28.179688 8.359375 -27.359375 C 8.359375 -26.554688 8.101562 -25.894531 7.59375 -25.375 C 7.09375 -24.851562 6.453125 -24.59375 5.671875 -24.59375 C 4.898438 -24.59375 4.257812 -24.851562 3.75 -25.375 C 3.25 -25.894531 3 -26.554688 3 -27.359375 C 3 -28.179688 3.25 -28.851562 3.75 -29.375 Z M 7.953125 0 L 3.40625 0 L 3.40625 -21.28125 L 7.953125 -21.28125 Z M 7.953125 0 "/></g></g></g><g fill="#dafffb" fill-opacity="1"><g transform="translate(1151.966369, 256.599925)"><g><path d="M 15.640625 -21.4375 C 18.648438 -21.4375 21.09375 -20.429688 22.96875 -18.421875 C 24.851562 -16.410156 25.796875 -13.789062 25.796875 -10.5625 C 25.796875 -7.363281 24.875 -4.773438 23.03125 -2.796875 C 21.195312 -0.828125 18.757812 0.15625 15.71875 0.15625 C 12.300781 0.15625 9.796875 -1.125 8.203125 -3.6875 L 8.203125 0 L 3.59375 0 L 3.59375 -29.6875 L 8.203125 -29.6875 L 8.203125 -17.59375 C 9.796875 -20.15625 12.273438 -21.4375 15.640625 -21.4375 Z M 10.015625 -5.703125 C 11.234375 -4.410156 12.785156 -3.765625 14.671875 -3.765625 C 16.566406 -3.765625 18.117188 -4.410156 19.328125 -5.703125 C 20.546875 -6.992188 21.15625 -8.664062 21.15625 -10.71875 C 21.15625 -12.71875 20.546875 -14.363281 19.328125 -15.65625 C 18.117188 -16.945312 16.566406 -17.59375 14.671875 -17.59375 C 12.785156 -17.59375 11.234375 -16.945312 10.015625 -15.65625 C 8.804688 -14.363281 8.203125 -12.71875 8.203125 -10.71875 C 8.203125 -8.664062 8.804688 -6.992188 10.015625 -5.703125 Z M 10.015625 -5.703125 "/></g></g></g><g fill="#dafffb" fill-opacity="1"><g transform="translate(1179.163663, 256.599925)"><g><path d="M 8 -21.28125 L 8 -17.046875 C 9.46875 -19.972656 11.921875 -21.4375 15.359375 -21.4375 L 15.359375 -17.046875 C 13.253906 -17.148438 11.546875 -16.65625 10.234375 -15.5625 C 8.929688 -14.46875 8.1875 -12.988281 8 -11.125 L 8 0 L 3.40625 0 L 3.40625 -21.28125 Z M 8 -21.28125 "/></g></g></g><g fill="#dafffb" fill-opacity="1"><g transform="translate(1194.922097, 256.599925)"><g><path d="M 16.15625 0 L 16.15625 -2.59375 C 14.632812 -0.726562 12.289062 0.203125 9.125 0.203125 C 6.851562 0.203125 5.035156 -0.414062 3.671875 -1.65625 C 2.316406 -2.894531 1.640625 -4.476562 1.640625 -6.40625 C 1.640625 -8.34375 2.34375 -9.882812 3.75 -11.03125 C 5.164062 -12.1875 7.144531 -12.773438 9.6875 -12.796875 L 16.125 -12.796875 L 16.125 -13.4375 C 16.125 -14.800781 15.6875 -15.851562 14.8125 -16.59375 C 13.945312 -17.34375 12.691406 -17.71875 11.046875 -17.71875 C 8.984375 -17.71875 6.890625 -17 4.765625 -15.5625 L 2.875 -18.765625 C 4.5 -19.722656 5.957031 -20.40625 7.25 -20.8125 C 8.550781 -21.226562 10.148438 -21.4375 12.046875 -21.4375 C 14.765625 -21.4375 16.867188 -20.773438 18.359375 -19.453125 C 19.847656 -18.140625 20.609375 -16.304688 20.640625 -13.953125 L 20.6875 0 Z M 10.078125 -3.4375 C 11.703125 -3.4375 13.082031 -3.816406 14.21875 -4.578125 C 15.351562 -5.335938 15.988281 -6.304688 16.125 -7.484375 L 16.125 -9.4375 L 10.359375 -9.4375 C 8.835938 -9.4375 7.722656 -9.21875 7.015625 -8.78125 C 6.304688 -8.34375 5.953125 -7.613281 5.953125 -6.59375 C 5.953125 -5.632812 6.316406 -4.867188 7.046875 -4.296875 C 7.785156 -3.722656 8.796875 -3.4375 10.078125 -3.4375 Z M 10.078125 -3.4375 "/></g></g></g><g fill="#dafffb" fill-opacity="1"><g transform="translate(1218.359755, 256.599925)"><g><path d="M 8 -21.28125 L 8 -17.046875 C 9.46875 -19.972656 11.921875 -21.4375 15.359375 -21.4375 L 15.359375 -17.046875 C 13.253906 -17.148438 11.546875 -16.65625 10.234375 -15.5625 C 8.929688 -14.46875 8.1875 -12.988281 8 -11.125 L 8 0 L 3.40625 0 L 3.40625 -21.28125 Z M 8 -21.28125 "/></g></g></g><g fill="#dafffb" fill-opacity="1"><g transform="translate(1234.118177, 256.599925)"><g><path d="M 21.4375 -21.28125 L 11.765625 2.921875 C 10.453125 6.273438 8.144531 7.953125 4.84375 7.953125 C 3 7.953125 1.359375 7.351562 -0.078125 6.15625 L 1.875 2.59375 C 2.832031 3.289062 3.753906 3.640625 4.640625 3.640625 C 6.078125 3.640625 7.15625 2.851562 7.875 1.28125 L 8.59375 -0.3125 L -0.203125 -21.28125 L 4.5625 -21.28125 L 10.921875 -5.15625 L 16.84375 -21.28125 Z M 21.4375 -21.28125 "/></g></g></g><g fill="#dafffb" fill-opacity="1"><g transform="translate(1255.356075, 256.599925)"><g/></g></g><g fill="#dafffb" fill-opacity="1"><g transform="translate(1265.675051, 256.599925)"><g><path d="M 21.765625 -6.3125 L 7.640625 -6.3125 L 4.953125 0 L 0.046875 0 L 12.40625 -28 L 17.234375 -28 L 29.484375 0 L 24.4375 0 Z M 19.953125 -10.515625 L 14.6875 -22.953125 L 9.40625 -10.515625 Z M 19.953125 -10.515625 "/></g></g></g><g fill="#dafffb" fill-opacity="1"><g transform="translate(1295.192131, 256.599925)"><g><path d="M 15.640625 -21.4375 C 18.648438 -21.4375 21.09375 -20.429688 22.96875 -18.421875 C 24.851562 -16.410156 25.796875 -13.789062 25.796875 -10.5625 C 25.796875 -7.363281 24.875 -4.773438 23.03125 -2.796875 C 21.195312 -0.828125 18.757812 0.15625 15.71875 0.15625 C 12.300781 0.15625 9.796875 -1.125 8.203125 -3.6875 L 8.203125 7.765625 L 3.59375 7.765625 L 3.59375 -21.28125 L 8.203125 -21.28125 L 8.203125 -17.59375 C 9.796875 -20.15625 12.273438 -21.4375 15.640625 -21.4375 Z M 10.015625 -5.703125 C 11.234375 -4.410156 12.785156 -3.765625 14.671875 -3.765625 C 16.566406 -3.765625 18.117188 -4.410156 19.328125 -5.703125 C 20.546875 -6.992188 21.15625 -8.664062 21.15625 -10.71875 C 21.15625 -12.71875 20.546875 -14.363281 19.328125 -15.65625 C 18.117188 -16.945312 16.566406 -17.59375 14.671875 -17.59375 C 12.785156 -17.59375 11.234375 -16.945312 10.015625 -15.65625 C 8.804688 -14.363281 8.203125 -12.71875 8.203125 -10.71875 C 8.203125 -8.664062 8.804688 -6.992188 10.015625 -5.703125 Z M 10.015625 -5.703125 "/></g></g></g><g fill="#dafffb" fill-opacity="1"><g transform="translate(1322.389426, 256.599925)"><g><path d="M 15.640625 -21.4375 C 18.648438 -21.4375 21.09375 -20.429688 22.96875 -18.421875 C 24.851562 -16.410156 25.796875 -13.789062 25.796875 -10.5625 C 25.796875 -7.363281 24.875 -4.773438 23.03125 -2.796875 C 21.195312 -0.828125 18.757812 0.15625 15.71875 0.15625 C 12.300781 0.15625 9.796875 -1.125 8.203125 -3.6875 L 8.203125 7.765625 L 3.59375 7.765625 L 3.59375 -21.28125 L 8.203125 -21.28125 L 8.203125 -17.59375 C 9.796875 -20.15625 12.273438 -21.4375 15.640625 -21.4375 Z M 10.015625 -5.703125 C 11.234375 -4.410156 12.785156 -3.765625 14.671875 -3.765625 C 16.566406 -3.765625 18.117188 -4.410156 19.328125 -5.703125 C 20.546875 -6.992188 21.15625 -8.664062 21.15625 -10.71875 C 21.15625 -12.71875 20.546875 -14.363281 19.328125 -15.65625 C 18.117188 -16.945312 16.566406 -17.59375 14.671875 -17.59375 C 12.785156 -17.59375 11.234375 -16.945312 10.015625 -15.65625 C 8.804688 -14.363281 8.203125 -12.71875 8.203125 -10.71875 C 8.203125 -8.664062 8.804688 -6.992188 10.015625 -5.703125 Z M 10.015625 -5.703125 "/></g></g></g></svg>