<svg xmlns="http://www.w3.org/2000/svg" xmlns:xlink="http://www.w3.org/1999/xlink" width="1920" zoomAndPan="magnify" viewBox="0 0 1440 293.999989" height="392" preserveAspectRatio="xMidYMid meet" version="1.0"><defs><g/><clipPath id="6b8345440b"><path d="M 11.015625 29.398438 L 328 29.398438 L 328 264.898438 L 11.015625 264.898438 Z M 11.015625 29.398438 " clip-rule="nonzero"/></clipPath></defs><g clip-path="url(#6b8345440b)"><path fill="#d1feff" d="M 285.054688 75.351562 C 270.574219 78.851562 255.523438 80.632812 240.851562 83.367188 C 226.117188 86.101562 211.511719 89.285156 196.90625 92.785156 C 195.125 93.230469 194.363281 90.558594 196.140625 90.113281 C 210.941406 86.292969 225.738281 82.792969 240.726562 79.675781 C 255.078125 76.75 269.9375 73.503906 284.609375 72.234375 C 286.386719 72.042969 286.769531 74.90625 285.054688 75.351562 Z M 112.945312 177.085938 C 93.511719 174.03125 74.078125 170.785156 54.519531 168.496094 C 53.5 168.367188 53.246094 170.148438 54.265625 170.339844 C 73.699219 174.414062 93.386719 177.464844 113.007812 180.710938 C 132.632812 183.957031 152.257812 187.390625 171.945312 190.253906 C 174.167969 190.574219 175.183594 187.199219 172.835938 186.753906 C 152.957031 183.191406 132.886719 180.203125 112.945312 177.085938 Z M 71.792969 230.785156 C 57.25 226.265625 42.769531 221.683594 28.289062 217.039062 C 26.382812 216.40625 25.621094 219.457031 27.527344 220.03125 C 41.816406 224.613281 56.105469 229.128906 70.394531 233.582031 C 77.253906 235.683594 84.113281 237.78125 91.035156 239.816406 C 99.417969 242.234375 107.992188 245.609375 116.566406 246.945312 C 117.582031 247.132812 118.40625 245.671875 117.265625 245.164062 C 109.707031 241.789062 101.195312 239.945312 93.257812 237.464844 C 86.144531 235.238281 78.96875 233.011719 71.792969 230.785156 Z M 28.351562 204.570312 C 26.636719 204.0625 25.9375 206.734375 27.652344 207.304688 C 56.742188 216.46875 85.890625 225.375 115.042969 234.21875 C 116.375 234.601562 116.882812 232.566406 115.613281 232.121094 C 86.527344 222.765625 57.503906 213.542969 28.351562 204.570312 Z M 171.4375 172.757812 C 130.855469 165.824219 90.210938 159.269531 49.628906 152.398438 C 48.105469 152.144531 48.167969 154.054688 49.691406 154.371094 C 49.691406 154.371094 130.285156 168.941406 170.675781 176.386719 C 173.851562 176.957031 174.613281 173.332031 171.4375 172.757812 Z M 284.925781 58.363281 C 254.253906 63.007812 223.769531 68.671875 193.347656 74.714844 C 192.078125 74.96875 192.648438 76.878906 193.917969 76.625 C 224.46875 71.152344 255.078125 66.0625 285.753906 61.164062 C 287.59375 60.90625 286.769531 58.109375 284.925781 58.363281 Z M 321.761719 139.675781 C 321.570312 139.992188 321.316406 140.121094 321 140.183594 C 320.683594 140.375 320.363281 140.5 319.984375 140.5 C 316.554688 140.945312 313.125 141.390625 309.757812 141.835938 C 315.09375 153.164062 316.9375 169.195312 308.742188 179.503906 C 308.617188 179.628906 308.488281 179.757812 308.363281 179.882812 C 308.109375 180.140625 307.726562 180.328125 307.28125 180.394531 C 303.535156 181.21875 299.789062 182.046875 296.105469 182.875 C 302.457031 194.519531 302.011719 208.324219 295.976562 220.03125 C 295.789062 220.476562 295.40625 220.667969 295.089844 220.792969 C 294.835938 220.921875 294.582031 221.050781 294.261719 221.113281 C 236.28125 235.492188 178.550781 250.953125 120.3125 264.375 C 119.679688 264.695312 118.914062 264.757812 118.089844 264.503906 C 83.097656 254.453125 48.738281 242.425781 14 231.800781 C 11.839844 231.164062 12.09375 228.300781 13.683594 227.601562 C 22.191406 216.023438 21.8125 200.308594 12.347656 189.300781 C 11.015625 187.710938 11.839844 185.738281 13.171875 184.910156 C 13.363281 184.71875 13.617188 184.59375 13.871094 184.527344 C 22.445312 182.429688 30.828125 179.503906 39.402344 177.53125 C 42.070312 176.957031 43.214844 180.839844 40.546875 181.601562 C 33.878906 183.574219 27.082031 184.972656 20.285156 186.4375 C 36.226562 191.144531 52.167969 195.789062 68.046875 200.625 C 76.871094 203.296875 85.636719 205.90625 94.464844 208.578125 C 98.785156 209.914062 103.164062 211.25 107.484375 212.585938 C 110.53125 213.542969 113.769531 214.175781 116.691406 215.511719 C 132.0625 212.394531 147.429688 209.214844 162.863281 206.414062 C 147.175781 203.042969 131.425781 199.734375 115.742188 196.488281 C 103.925781 194.007812 92.113281 191.464844 80.300781 188.726562 C 68.617188 185.992188 57.183594 182.238281 45.5625 179.695312 C 45.5 179.695312 45.4375 179.628906 45.371094 179.628906 C 44.546875 179.503906 43.785156 178.867188 43.402344 177.785156 C 42.070312 173.523438 42.195312 168.6875 41.878906 164.234375 L 40.800781 149.410156 C 40.609375 147.183594 44.421875 146.609375 44.738281 148.835938 C 45.5 153.734375 46.261719 158.632812 47.023438 163.46875 C 47.722656 167.859375 48.992188 172.566406 48.675781 177.019531 C 48.675781 177.148438 48.613281 177.277344 48.613281 177.402344 C 59.851562 179.757812 71.476562 181.03125 82.777344 183.128906 C 94.335938 185.292969 105.960938 187.457031 117.519531 189.617188 C 141.207031 194.136719 164.960938 198.144531 188.710938 202.152344 C 188.902344 202.214844 189.15625 202.214844 189.347656 202.28125 C 194.492188 191.972656 194.171875 179.949219 188.902344 169.703125 C 188.519531 169.257812 188.140625 168.8125 187.757812 168.433594 C 187.695312 168.367188 187.695312 168.367188 187.632812 168.304688 C 182.425781 167.988281 177.089844 166.839844 171.945312 166.140625 C 168.261719 165.632812 164.515625 165.058594 160.832031 164.488281 C 160.769531 164.488281 160.703125 164.488281 160.578125 164.488281 C 113.261719 156.660156 66.011719 148.519531 18.636719 140.820312 C 15.90625 140.375 17.046875 136.367188 19.714844 136.746094 C 20.222656 136.8125 20.730469 136.875 21.238281 136.9375 C 20.605469 126.121094 20.222656 115.371094 19.84375 104.554688 C 18.890625 104.425781 18 104.234375 17.046875 104.109375 C 16.667969 104.046875 16.347656 103.917969 16.160156 103.664062 C 14.824219 102.898438 14.570312 100.417969 16.539062 99.847656 C 26.445312 96.917969 36.417969 93.863281 46.578125 92.019531 C 42.894531 86.992188 41.246094 79.929688 40.925781 74.140625 C 40.417969 66.316406 42.386719 58.679688 46.324219 52 C 46.390625 51.429688 46.769531 50.917969 47.53125 50.726562 C 64.363281 46.71875 81.320312 41.949219 98.402344 39.023438 C 108.882812 36.539062 121.457031 34.1875 128.316406 32.660156 C 135.554688 31.070312 141.96875 30.113281 149.398438 29.921875 C 165.402344 29.542969 181.664062 31.195312 197.601562 31.894531 C 231.578125 33.484375 263.207031 35.648438 299.660156 39.847656 C 301.121094 40.039062 301.566406 41.375 301.3125 42.457031 C 301.441406 43.667969 300.742188 44.875 299.28125 44.8125 C 298.390625 44.9375 297.503906 45.128906 296.613281 45.257812 C 295.152344 52.191406 294.390625 59.191406 294.769531 66.253906 C 295.089844 72.550781 296.550781 78.53125 297.945312 84.640625 C 298.960938 84.511719 299.980469 84.320312 300.996094 84.128906 C 303.597656 83.75 304.867188 87.695312 302.136719 88.203125 C 292.675781 89.921875 283.148438 91.703125 273.6875 93.546875 C 289.5625 94.375 305.125 96.09375 320.808594 99.273438 C 321.191406 99.335938 321.445312 99.464844 321.699219 99.65625 C 322.589844 99.972656 323.097656 100.863281 323.160156 101.753906 C 329.765625 113.714844 329.128906 128.09375 321.761719 139.675781 Z M 293.308594 45.828125 C 256.347656 51.875 219.386719 57.917969 182.488281 64.472656 C 182.488281 64.535156 182.425781 64.660156 182.425781 64.726562 C 179.183594 72.105469 178.105469 80.1875 179.183594 88.203125 C 179.695312 91.765625 180.644531 95.203125 181.851562 98.574219 C 182.804688 101.117188 184.203125 103.410156 185.347656 105.890625 C 221.863281 98.382812 258.253906 90.9375 295.089844 85.148438 C 290.324219 72.742188 290.707031 58.679688 293.308594 45.828125 Z M 58.773438 52 C 98.71875 54.992188 138.667969 57.917969 178.613281 61.542969 C 178.742188 61.480469 178.867188 61.417969 179.058594 61.417969 C 213.289062 54.101562 247.902344 48.4375 282.515625 43.03125 C 283.402344 42.902344 284.230469 42.839844 285.117188 42.710938 C 256.921875 39.976562 228.722656 37.875 200.398438 36.476562 C 184.140625 35.648438 167.882812 34.503906 151.558594 33.742188 C 149.144531 33.613281 146.796875 33.613281 144.507812 33.742188 C 134.410156 35.839844 124.3125 38.003906 114.214844 40.039062 C 106.976562 41.882812 99.039062 43.855469 93.765625 44.9375 C 82.082031 47.546875 70.394531 49.648438 58.773438 52 Z M 178.488281 66.1875 C 161.910156 64.726562 145.335938 63.261719 128.757812 61.734375 C 126.347656 75.285156 127.042969 88.265625 132 101.117188 C 147.429688 102.707031 162.863281 104.171875 178.359375 105.382812 C 175.566406 100.035156 174.550781 93.164062 174.296875 87.757812 C 173.976562 80.3125 175.4375 72.933594 178.488281 66.1875 Z M 124.058594 61.351562 C 112.628906 60.335938 101.195312 59.253906 89.765625 58.171875 C 86.398438 71.152344 87.542969 84.765625 93.320312 96.917969 C 104.816406 98.253906 116.3125 99.589844 127.808594 100.800781 C 122.472656 88.519531 120.695312 74.332031 124.058594 61.351562 Z M 51.53125 91.765625 C 63.601562 93.292969 75.667969 94.757812 87.796875 96.21875 C 82.398438 83.941406 81.253906 70.769531 84.683594 57.664062 C 72.617188 56.519531 60.550781 55.308594 48.484375 54.101562 C 48.230469 54.164062 47.914062 54.164062 47.722656 54.101562 C 44.863281 60.144531 43.65625 66.632812 44.355469 73.316406 C 45.117188 80.503906 48.546875 85.65625 51.53125 91.765625 Z M 161.65625 125.550781 C 115.550781 118.871094 69.316406 112.570312 23.335938 105.0625 C 23.78125 115.816406 24.289062 126.566406 24.476562 137.320312 C 69.886719 143.683594 115.167969 150.300781 160.449219 157.488281 C 160.515625 157.234375 160.578125 157.042969 160.703125 156.789062 C 165.277344 146.925781 165.785156 135.730469 161.65625 125.550781 Z M 164.832031 119.886719 C 211.511719 112.1875 258.445312 106.527344 305.441406 101.246094 C 291.277344 98.953125 277.050781 96.664062 262.699219 95.773438 C 262.636719 95.773438 262.636719 95.773438 262.570312 95.773438 C 236.789062 100.863281 211.066406 106.207031 185.410156 111.550781 C 185.28125 111.550781 185.15625 111.550781 185.027344 111.617188 C 184.710938 111.742188 184.265625 111.808594 183.820312 111.742188 C 139.300781 108.054688 95.101562 101.945312 50.898438 95.582031 C 50.644531 95.648438 50.390625 95.582031 50.074219 95.519531 C 49.945312 95.582031 49.882812 95.582031 49.753906 95.648438 C 41.941406 97.683594 34.132812 99.527344 26.320312 101.5 C 72.109375 107.097656 117.835938 112.886719 163.5 119.378906 C 164.070312 119.441406 164.453125 119.632812 164.832031 119.886719 Z M 267.96875 142.28125 C 274.449219 141.390625 280.863281 140.566406 287.339844 139.738281 C 290.007812 129.367188 289.5 118.613281 284.800781 109.070312 C 278.324219 109.835938 271.84375 110.597656 265.367188 111.363281 C 269.875 120.839844 271.589844 132.292969 267.96875 142.28125 Z M 235.390625 146.863281 C 244.726562 145.527344 254.0625 144.191406 263.398438 142.917969 C 265.746094 132.421875 266.445312 122.367188 262 112.1875 C 261.9375 112.0625 261.875 111.871094 261.875 111.742188 C 252.601562 112.824219 243.328125 113.96875 234.058594 115.117188 C 238.183594 125.039062 239.328125 136.746094 235.390625 146.863281 Z M 207.765625 151.0625 C 215.511719 149.855469 223.324219 148.644531 231.136719 147.5 C 234.3125 136.554688 235.136719 126.1875 230.816406 115.496094 C 222.625 116.453125 214.433594 117.46875 206.304688 118.425781 C 211.257812 128.667969 212.019531 140.5 207.765625 151.0625 Z M 204.015625 151.699219 C 206.683594 140.753906 207.445312 129.558594 202.683594 118.933594 C 202.683594 118.933594 202.683594 118.933594 202.683594 118.871094 C 190.425781 120.332031 178.105469 121.730469 165.785156 123.070312 C 170.800781 134.328125 171.054688 146.863281 166.039062 158.1875 C 178.675781 155.898438 191.316406 153.734375 204.015625 151.699219 Z M 229.929688 153.035156 C 212.464844 155.582031 195 158.125 177.46875 160.605469 C 181.21875 160.925781 185.027344 161.179688 188.585938 161.941406 C 202.367188 158.886719 216.148438 155.898438 229.929688 153.035156 Z M 115.742188 221.941406 C 115.484375 221.683594 115.296875 221.429688 115.167969 221.113281 C 111.992188 220.539062 109.007812 219.265625 105.960938 218.3125 C 101.640625 216.914062 97.257812 215.578125 92.941406 214.242188 C 84.175781 211.503906 75.414062 208.769531 66.585938 206.035156 C 51.023438 201.199219 35.527344 196.234375 20.097656 191.144531 C 26.765625 202.917969 26.003906 217.167969 17.621094 228.175781 C 51.53125 237.464844 85.066406 247.898438 118.851562 257.632812 C 124.125 245.863281 125.710938 231.800781 115.742188 221.941406 Z M 182.679688 227.792969 C 181.917969 221.175781 179.820312 215.066406 176.453125 209.46875 C 158.417969 213.859375 140.0625 216.914062 121.902344 220.476562 C 131.300781 231.164062 129.457031 246.5625 124.1875 259.097656 C 143.367188 253.941406 162.546875 248.851562 181.726562 243.824219 C 181.789062 241.855469 182.425781 239.882812 182.679688 237.78125 C 183.058594 234.472656 182.996094 231.101562 182.679688 227.792969 Z M 244.980469 195.472656 C 239.074219 197.0625 233.167969 198.652344 227.261719 200.308594 C 221.355469 201.960938 215.449219 203.617188 209.542969 205.269531 C 203.761719 206.925781 197.921875 208.578125 192.140625 210.359375 C 190.171875 210.933594 187.757812 211.378906 185.789062 210.933594 C 184.203125 210.550781 183.121094 210.296875 181.089844 209.789062 C 184.074219 214.8125 186.425781 220.921875 187.316406 226.710938 C 187.949219 230.785156 188.585938 237.464844 187.1875 242.425781 C 208.019531 236.953125 228.847656 231.546875 249.679688 226.203125 C 251.394531 215.511719 250.25 205.078125 244.980469 195.472656 Z M 294.707031 200.6875 C 294.582031 195.535156 292.800781 188.15625 288.546875 184.65625 C 275.210938 187.773438 261.875 191.019531 248.601562 194.519531 C 253.808594 203.742188 256.09375 214.6875 254.125 225.058594 C 266.636719 221.875 279.148438 218.695312 291.722656 215.578125 C 293.882812 210.804688 294.835938 205.84375 294.707031 200.6875 Z M 308.234375 160.859375 C 308.234375 154.816406 306.835938 148.898438 304.105469 143.492188 C 303.980469 143.300781 303.917969 143.046875 303.851562 142.855469 C 285.6875 146.863281 267.144531 149.664062 248.855469 153.351562 C 230.054688 157.171875 211.320312 161.179688 192.585938 165.316406 C 192.585938 165.441406 192.585938 165.503906 192.585938 165.632812 C 198.175781 174.539062 199.699219 185.164062 197.285156 195.089844 C 196.839844 198.460938 195.953125 201.707031 194.746094 204.953125 C 231.453125 194.074219 268.480469 184.59375 305.695312 175.621094 C 306.835938 170.722656 308.234375 166.015625 308.234375 160.859375 Z M 318.652344 105.125 C 308.679688 106.207031 298.644531 107.351562 288.675781 108.5625 C 293.5 118.679688 293.945312 128.605469 291.40625 139.164062 C 300.867188 137.957031 310.394531 136.746094 319.855469 135.601562 C 319.855469 135.601562 319.921875 135.601562 319.921875 135.601562 C 323.859375 126.375 324.429688 113.714844 318.652344 105.125 Z M 318.652344 105.125 " fill-opacity="1" fill-rule="nonzero"/></g><g fill="#dafffb" fill-opacity="1"><g transform="translate(357.382557, 225.576961)"><g><path d="M 151.515625 0 L 111.21875 0 L 46.140625 -113.15625 L 45.21875 -113.15625 C 46.519531 -93.164062 47.171875 -78.910156 47.171875 -70.390625 L 47.171875 0 L 18.828125 0 L 18.828125 -149.578125 L 58.828125 -149.578125 L 123.796875 -37.546875 L 124.515625 -37.546875 C 123.492188 -56.984375 122.984375 -70.726562 122.984375 -78.78125 L 122.984375 -149.578125 L 151.515625 -149.578125 Z M 151.515625 0 "/></g></g><g transform="translate(527.734966, 225.576961)"><g><path d="M 63.734375 -94.328125 C 57.117188 -94.328125 51.9375 -92.226562 48.1875 -88.03125 C 44.4375 -83.84375 42.289062 -77.894531 41.75 -70.1875 L 85.53125 -70.1875 C 85.394531 -77.894531 83.378906 -83.84375 79.484375 -88.03125 C 75.597656 -92.226562 70.347656 -94.328125 63.734375 -94.328125 Z M 68.140625 2.046875 C 49.722656 2.046875 35.328125 -3.03125 24.953125 -13.1875 C 14.585938 -23.351562 9.40625 -37.75 9.40625 -56.375 C 9.40625 -75.539062 14.195312 -90.359375 23.78125 -100.828125 C 33.363281 -111.296875 46.613281 -116.53125 63.53125 -116.53125 C 79.695312 -116.53125 92.28125 -111.925781 101.28125 -102.71875 C 110.289062 -93.507812 114.796875 -80.789062 114.796875 -64.5625 L 114.796875 -49.421875 L 41.03125 -49.421875 C 41.363281 -40.546875 43.984375 -33.617188 48.890625 -28.640625 C 53.804688 -23.660156 60.703125 -21.171875 69.578125 -21.171875 C 76.460938 -21.171875 82.972656 -21.882812 89.109375 -23.3125 C 95.242188 -24.75 101.65625 -27.039062 108.34375 -30.1875 L 108.34375 -6.03125 C 102.882812 -3.300781 97.050781 -1.273438 90.84375 0.046875 C 84.644531 1.378906 77.078125 2.046875 68.140625 2.046875 Z M 68.140625 2.046875 "/></g></g><g transform="translate(651.534613, 225.576961)"><g><path d="M 39.796875 -58.421875 L 2.96875 -114.375 L 38.359375 -114.375 L 60.5625 -77.953125 L 82.96875 -114.375 L 118.375 -114.375 L 81.125 -58.421875 L 120.109375 0 L 84.609375 0 L 60.5625 -39.1875 L 36.421875 0 L 1.015625 0 Z M 39.796875 -58.421875 "/></g></g><g transform="translate(772.674104, 225.576961)"><g><path d="M 64.5625 -22.8125 C 70.019531 -22.8125 76.566406 -24.003906 84.203125 -26.390625 L 84.203125 -3.171875 C 76.421875 0.304688 66.867188 2.046875 55.546875 2.046875 C 43.066406 2.046875 33.976562 -1.101562 28.28125 -7.40625 C 22.59375 -13.71875 19.75 -23.1875 19.75 -35.8125 L 19.75 -90.953125 L 4.8125 -90.953125 L 4.8125 -104.15625 L 22 -114.59375 L 31 -138.734375 L 50.953125 -138.734375 L 50.953125 -114.375 L 82.96875 -114.375 L 82.96875 -90.953125 L 50.953125 -90.953125 L 50.953125 -35.8125 C 50.953125 -31.375 52.195312 -28.097656 54.6875 -25.984375 C 57.175781 -23.867188 60.46875 -22.8125 64.5625 -22.8125 Z M 64.5625 -22.8125 "/></g></g><g transform="translate(863.631035, 225.576961)"><g/></g><g transform="translate(918.061956, 225.576961)"><g><path d="M 50.546875 -83.171875 L 60.765625 -83.171875 C 70.796875 -83.171875 78.195312 -84.84375 82.96875 -88.1875 C 87.75 -91.53125 90.140625 -96.785156 90.140625 -103.953125 C 90.140625 -111.046875 87.695312 -116.09375 82.8125 -119.09375 C 77.9375 -122.09375 70.382812 -123.59375 60.15625 -123.59375 L 50.546875 -123.59375 Z M 50.546875 -57.390625 L 50.546875 0 L 18.828125 0 L 18.828125 -149.578125 L 62.40625 -149.578125 C 82.726562 -149.578125 97.765625 -145.875 107.515625 -138.46875 C 117.273438 -131.070312 122.15625 -119.835938 122.15625 -104.765625 C 122.15625 -95.960938 119.734375 -88.132812 114.890625 -81.28125 C 110.046875 -74.425781 103.191406 -69.054688 94.328125 -65.171875 C 116.835938 -31.546875 131.503906 -9.820312 138.328125 0 L 103.125 0 L 67.421875 -57.390625 Z M 50.546875 -57.390625 "/></g></g><g transform="translate(1056.390158, 225.576961)"><g><path d="M 63.734375 -94.328125 C 57.117188 -94.328125 51.9375 -92.226562 48.1875 -88.03125 C 44.4375 -83.84375 42.289062 -77.894531 41.75 -70.1875 L 85.53125 -70.1875 C 85.394531 -77.894531 83.378906 -83.84375 79.484375 -88.03125 C 75.597656 -92.226562 70.347656 -94.328125 63.734375 -94.328125 Z M 68.140625 2.046875 C 49.722656 2.046875 35.328125 -3.03125 24.953125 -13.1875 C 14.585938 -23.351562 9.40625 -37.75 9.40625 -56.375 C 9.40625 -75.539062 14.195312 -90.359375 23.78125 -100.828125 C 33.363281 -111.296875 46.613281 -116.53125 63.53125 -116.53125 C 79.695312 -116.53125 92.28125 -111.925781 101.28125 -102.71875 C 110.289062 -93.507812 114.796875 -80.789062 114.796875 -64.5625 L 114.796875 -49.421875 L 41.03125 -49.421875 C 41.363281 -40.546875 43.984375 -33.617188 48.890625 -28.640625 C 53.804688 -23.660156 60.703125 -21.171875 69.578125 -21.171875 C 76.460938 -21.171875 82.972656 -21.882812 89.109375 -23.3125 C 95.242188 -24.75 101.65625 -27.039062 108.34375 -30.1875 L 108.34375 -6.03125 C 102.882812 -3.300781 97.050781 -1.273438 90.84375 0.046875 C 84.644531 1.378906 77.078125 2.046875 68.140625 2.046875 Z M 68.140625 2.046875 "/></g></g><g transform="translate(1180.189806, 225.576961)"><g><path d="M 89.015625 0 L 82.96875 -15.546875 L 82.15625 -15.546875 C 76.90625 -8.929688 71.5 -4.34375 65.9375 -1.78125 C 60.375 0.769531 53.128906 2.046875 44.203125 2.046875 C 33.210938 2.046875 24.5625 -1.085938 18.25 -7.359375 C 11.945312 -13.640625 8.796875 -22.578125 8.796875 -34.171875 C 8.796875 -46.316406 13.039062 -55.269531 21.53125 -61.03125 C 30.03125 -66.789062 42.835938 -69.976562 59.953125 -70.59375 L 79.796875 -71.203125 L 79.796875 -76.21875 C 79.796875 -87.8125 73.863281 -93.609375 62 -93.609375 C 52.863281 -93.609375 42.117188 -90.847656 29.765625 -85.328125 L 19.4375 -106.40625 C 32.601562 -113.289062 47.203125 -116.734375 63.234375 -116.734375 C 78.578125 -116.734375 90.335938 -113.390625 98.515625 -106.703125 C 106.703125 -100.023438 110.796875 -89.863281 110.796875 -76.21875 L 110.796875 0 Z M 79.796875 -53 L 67.734375 -52.59375 C 58.660156 -52.3125 51.90625 -50.671875 47.46875 -47.671875 C 43.039062 -44.671875 40.828125 -40.101562 40.828125 -33.96875 C 40.828125 -25.164062 45.875 -20.765625 55.96875 -20.765625 C 63.195312 -20.765625 68.972656 -22.84375 73.296875 -27 C 77.628906 -31.164062 79.796875 -36.691406 79.796875 -43.578125 Z M 79.796875 -53 "/></g></g><g transform="translate(1306.751926, 225.576961)"><g><path d="M 52.59375 2.046875 C 39.15625 2.046875 28.597656 -3.171875 20.921875 -13.609375 C 13.242188 -24.046875 9.40625 -38.503906 9.40625 -56.984375 C 9.40625 -75.742188 13.3125 -90.359375 21.125 -100.828125 C 28.9375 -111.296875 39.695312 -116.53125 53.40625 -116.53125 C 67.800781 -116.53125 78.78125 -110.9375 86.34375 -99.75 L 87.375 -99.75 C 85.800781 -108.28125 85.015625 -115.882812 85.015625 -122.5625 L 85.015625 -159.1875 L 116.328125 -159.1875 L 116.328125 0 L 92.390625 0 L 86.34375 -14.828125 L 85.015625 -14.828125 C 77.921875 -3.578125 67.113281 2.046875 52.59375 2.046875 Z M 63.53125 -22.8125 C 71.507812 -22.8125 77.359375 -25.128906 81.078125 -29.765625 C 84.796875 -34.410156 86.828125 -42.289062 87.171875 -53.40625 L 87.171875 -56.78125 C 87.171875 -69.0625 85.273438 -77.859375 81.484375 -83.171875 C 77.703125 -88.492188 71.546875 -91.15625 63.015625 -91.15625 C 56.066406 -91.15625 50.664062 -88.203125 46.8125 -82.296875 C 42.957031 -76.398438 41.03125 -67.828125 41.03125 -56.578125 C 41.03125 -45.328125 42.972656 -36.882812 46.859375 -31.25 C 50.742188 -25.625 56.300781 -22.8125 63.53125 -22.8125 Z M 63.53125 -22.8125 "/></g></g></g></svg>